<svg width="32" height="32" viewBox="0 0 32 32" fill="none" xmlns="http://www.w3.org/2000/svg">
<path d="M28 18.6666H26.6667V9.33325C26.6667 8.27239 26.2453 7.25497 25.4951 6.50482C24.745 5.75468 23.7276 5.33325 22.6667 5.33325H9.33335C8.27249 5.33325 7.25507 5.75468 6.50493 6.50482C5.75478 7.25497 5.33335 8.27239 5.33335 9.33325V18.6666H4.00002C3.6464 18.6666 3.30726 18.8071 3.05721 19.0571C2.80716 19.3072 2.66669 19.6463 2.66669 19.9999V22.6666C2.66669 23.7275 3.08811 24.7449 3.83826 25.495C4.58841 26.2452 5.60582 26.6666 6.66669 26.6666H25.3334C26.3942 26.6666 27.4116 26.2452 28.1618 25.495C28.9119 24.7449 29.3334 23.7275 29.3334 22.6666V19.9999C29.3334 19.6463 29.1929 19.3072 28.9428 19.0571C28.6928 18.8071 28.3536 18.6666 28 18.6666ZM8.00002 9.33325C8.00002 8.97963 8.1405 8.64049 8.39055 8.39044C8.64059 8.14039 8.97973 7.99992 9.33335 7.99992H22.6667C23.0203 7.99992 23.3594 8.14039 23.6095 8.39044C23.8595 8.64049 24 8.97963 24 9.33325V18.6666H8.00002V9.33325ZM26.6667 22.6666C26.6667 23.0202 26.5262 23.3593 26.2762 23.6094C26.0261 23.8594 25.687 23.9999 25.3334 23.9999H6.66669C6.31307 23.9999 5.97393 23.8594 5.72388 23.6094C5.47383 23.3593 5.33335 23.0202 5.33335 22.6666V21.3333H26.6667V22.6666Z" fill="#EF2D2D"/>
</svg>
